<?xml version="1.0" encoding="UTF-8" standalone="no"?>
<!DOCTYPE svg PUBLIC "-//W3C//DTD SVG 20010904//EN"
              "http://www.w3.org/TR/2001/REC-SVG-20010904/DTD/svg10.dtd">

<svg xmlns="http://www.w3.org/2000/svg"
     width="0.463333in" height="0.46in"
     viewBox="0 0 139 138">
  <path id="Selection"
        fill="white"
        d="M 19.00,0.56
           C 35.39,-2.31 40.07,7.33 43.73,21.00
             43.73,21.00 46.66,33.00 46.66,33.00
             47.11,37.60 45.38,42.38 42.61,46.00
             40.57,48.66 36.87,51.48 36.69,55.00
             36.38,61.19 46.87,76.45 51.09,81.00
             58.70,89.21 64.03,93.33 74.00,98.24
             76.07,99.26 81.37,101.97 83.58,101.70
             87.19,101.25 89.87,95.54 97.00,92.97
             104.16,90.38 123.68,95.11 129.98,99.14
             137.82,104.16 140.72,114.76 136.24,122.99
             134.43,126.29 131.78,128.40 129.17,131.00
             127.15,133.00 125.42,135.19 122.82,136.47
             118.83,138.43 112.46,138.05 108.00,138.00
             101.19,137.92 95.54,136.44 89.00,134.88
             50.92,125.80 21.27,99.68 7.42,63.00
             3.55,52.75 -2.45,28.39 0.80,18.00
             2.96,11.10 12.29,2.90 19.00,0.56 Z" />
</svg>
