<?xml version="1.0" encoding="UTF-8" standalone="no"?>
<!DOCTYPE svg PUBLIC "-//W3C//DTD SVG 20010904//EN"
              "http://www.w3.org/TR/2001/REC-SVG-20010904/DTD/svg10.dtd">

<svg xmlns="http://www.w3.org/2000/svg"
     width="8.54167in" height="8.76042in"
     viewBox="0 0 820 841">
  <path id="Selection"
        fill="#ffffffa6" width="500"
        d="M 214.00,53.00
           C 217.35,52.29 225.34,47.63 229.00,45.86
             229.00,45.86 260.00,31.32 260.00,31.32
             272.97,25.33 311.41,13.68 326.00,10.43
             326.00,10.43 348.00,6.54 348.00,6.54
             363.35,3.77 378.32,1.12 394.00,1.00
             394.00,1.00 412.00,0.00 412.00,0.00
             412.00,0.00 429.00,0.00 429.00,0.00
             429.00,0.00 443.00,1.00 443.00,1.00
             443.00,1.00 452.00,1.00 452.00,1.00
             469.06,1.03 499.75,7.27 517.00,11.12
             517.00,11.12 539.00,16.44 539.00,16.44
             539.00,16.44 566.00,25.91 566.00,25.91
             566.00,25.91 601.00,40.45 601.00,40.45
             601.00,40.45 613.00,45.78 613.00,45.78
             613.00,45.78 626.00,53.41 626.00,53.41
             645.47,64.75 676.82,83.14 692.00,99.00
             684.86,96.27 675.95,88.28 669.00,83.67
             669.00,83.67 632.00,61.12 632.00,61.12
             632.00,61.12 620.00,54.48 620.00,54.48
             538.54,15.73 456.96,3.84 368.00,19.32
             342.36,23.78 303.67,35.72 280.00,46.45
             280.00,46.45 250.00,61.12 250.00,61.12
             244.91,63.81 239.76,68.44 234.00,69.00
             231.19,73.47 223.50,77.13 219.00,80.19
             209.67,86.54 190.97,99.10 184.00,107.00
             184.00,107.00 182.00,106.00 182.00,106.00
             178.48,112.03 172.33,116.23 167.09,120.72
             167.09,120.72 150.00,137.00 150.00,137.00
             156.73,133.53 163.70,125.63 171.00,125.00
             173.92,120.46 179.50,118.78 184.00,116.12
             195.61,109.25 211.77,102.83 224.58,98.36
             249.32,89.71 285.83,81.04 312.00,81.00
             312.00,81.00 341.00,81.00 341.00,81.00
             354.86,81.02 371.33,82.88 385.00,85.25
             385.00,85.25 400.42,88.31 400.42,88.31
             416.78,90.96 436.73,98.05 452.00,104.58
             457.13,106.77 467.05,110.41 470.00,115.00
             476.28,115.53 482.67,121.00 487.72,124.63
             503.08,135.67 513.11,144.21 525.26,159.00
             529.47,164.12 536.03,169.18 537.00,176.00
             540.76,178.26 542.00,181.32 544.20,185.00
             549.09,193.17 552.21,200.11 555.53,209.00
             567.79,241.86 571.21,272.66 562.37,307.00
             560.46,314.40 555.57,327.15 552.20,334.00
             550.31,337.83 548.70,341.74 545.00,344.00
             545.00,344.00 546.00,346.00 546.00,346.00
             546.00,346.00 535.50,360.00 535.50,360.00
             535.50,360.00 526.70,370.00 526.70,370.00
             515.71,381.69 492.17,397.81 477.00,403.00
             477.00,403.00 481.20,386.00 481.20,386.00
             484.39,372.43 488.85,349.68 489.00,336.00
             489.27,309.92 485.29,282.68 467.55,262.17
             453.76,246.23 425.96,235.08 405.00,235.08
             389.64,235.08 367.69,242.13 354.00,248.97
             332.45,259.74 310.09,281.05 295.22,299.80
             295.22,299.80 277.00,326.00 277.00,326.00
             280.94,312.23 298.29,290.96 307.77,280.01
             307.77,280.01 316.81,268.79 316.81,268.79
             323.82,260.82 336.05,249.94 345.00,244.24
             376.80,224.01 416.16,220.52 452.00,230.45
             460.56,232.82 466.83,234.40 475.00,238.36
             491.79,246.49 502.01,254.72 510.27,271.83
             510.27,271.83 513.44,278.04 513.44,278.04
             513.44,278.04 521.59,309.00 521.59,309.00
             523.02,314.13 526.80,324.54 533.39,317.65
             536.91,313.98 539.62,306.74 541.42,302.00
             542.63,298.82 544.18,295.47 544.91,292.17
             549.82,269.94 541.59,247.13 529.02,229.00
             516.92,211.55 501.05,197.10 483.04,185.99
             483.04,185.99 475.91,181.37 475.91,181.37
             465.73,175.89 454.92,171.94 444.00,168.29
             427.33,162.74 428.96,163.57 412.00,160.81
             405.17,159.69 407.52,159.01 399.00,159.00
             399.00,159.00 369.00,159.00 369.00,159.00
             356.56,159.15 330.34,165.63 318.00,169.64
             318.00,169.64 310.00,171.95 310.00,171.95
             293.57,177.98 272.87,188.54 258.00,197.76
             258.00,197.76 247.00,205.50 247.00,205.50
             247.00,205.50 233.09,214.91 233.09,214.91
             222.53,222.98 212.87,232.22 203.28,241.41
             193.13,251.14 183.88,261.95 175.21,273.00
             171.84,277.28 164.85,287.81 161.00,290.00
             161.00,290.00 151.59,307.28 151.59,307.28
             151.59,307.28 145.00,316.00 145.00,316.00
             144.89,320.08 141.55,325.10 139.77,329.00
             139.77,329.00 127.24,357.57 127.24,357.57
             121.91,371.78 113.80,399.14 111.32,414.00
             111.32,414.00 108.83,434.00 108.83,434.00
             108.83,434.00 107.00,452.00 107.00,452.00
             107.00,452.00 107.00,490.00 107.00,490.00
             107.01,498.57 107.65,496.85 108.70,504.00
             108.70,504.00 115.85,542.00 115.85,542.00
             123.09,568.77 132.62,594.98 146.71,619.00
             146.71,619.00 154.47,631.00 154.47,631.00
             154.47,631.00 164.63,646.72 164.63,646.72
             174.14,659.53 188.47,676.17 200.00,686.91
             200.00,686.91 215.01,701.04 215.01,701.04
             219.07,704.63 221.53,705.13 224.00,710.00
             224.00,710.00 232.57,715.04 232.57,715.04
             232.57,715.04 247.00,727.00 247.00,727.00
             252.21,727.74 258.27,733.20 263.04,735.93
             263.04,735.93 303.00,757.29 303.00,757.29
             303.00,757.29 319.00,764.34 319.00,764.34
             319.00,764.34 337.00,770.87 337.00,770.87
             337.00,770.87 351.00,777.74 351.00,777.74
             351.00,777.74 367.00,784.55 367.00,784.55
             394.51,795.74 423.69,804.55 453.00,809.25
             453.00,809.25 490.01,814.57 490.01,814.57
             500.71,814.59 523.05,809.74 533.91,806.97
             543.75,804.47 568.26,798.86 576.00,794.00
             569.49,795.58 568.77,794.62 563.00,795.17
             563.00,795.17 509.00,796.00 509.00,796.00
             509.00,796.00 499.00,795.09 499.00,795.09
             499.00,795.09 471.00,792.83 471.00,792.83
             471.00,792.83 451.72,789.59 451.72,789.59
             411.13,782.90 366.54,770.38 330.00,751.32
             330.00,751.32 316.00,744.70 316.00,744.70
             316.00,744.70 284.73,726.51 284.73,726.51
             280.22,723.69 269.35,717.17 267.00,713.00
             262.33,712.40 255.94,706.42 252.17,703.39
             252.17,703.39 226.46,681.26 226.46,681.26
             221.96,676.80 219.17,675.39 217.00,669.00
             223.33,667.86 233.33,673.78 239.00,676.93
             241.62,678.39 244.16,679.64 246.00,682.00
             252.34,682.20 268.10,692.58 275.00,695.83
             278.95,697.70 283.58,699.24 286.00,703.00
             289.93,703.10 291.68,703.75 294.00,707.00
             299.25,707.01 301.46,709.27 306.00,711.45
             306.00,711.45 330.00,722.42 330.00,722.42
             330.00,722.42 347.00,729.46 347.00,729.46
             347.00,729.46 405.00,747.25 405.00,747.25
             422.35,751.81 452.98,756.68 471.00,758.36
             471.00,758.36 502.00,761.00 502.00,761.00
             502.00,761.00 542.00,761.00 542.00,761.00
             542.00,761.00 565.00,759.17 565.00,759.17
             595.72,756.19 626.12,748.99 655.00,738.06
             668.97,732.78 682.74,727.02 695.96,720.04
             695.96,720.04 704.04,714.89 704.04,714.89
             708.36,712.40 718.46,706.69 721.96,703.75
             721.96,703.75 730.18,694.97 730.18,694.97
             730.18,694.97 738.42,686.83 738.42,686.83
             738.42,686.83 749.28,674.00 749.28,674.00
             764.24,656.04 778.18,637.34 789.83,617.00
             789.83,617.00 804.06,590.00 804.06,590.00
             806.43,585.00 808.16,579.02 812.00,575.00
             809.81,583.12 801.57,599.88 797.59,608.00
             786.13,631.37 777.95,644.43 763.06,665.42
             763.06,665.42 755.87,675.99 755.87,675.99
             755.87,675.99 749.00,684.09 749.00,684.09
             685.27,763.59 596.31,816.51 496.00,834.24
             496.00,834.24 477.00,837.31 477.00,837.31
             477.00,837.31 470.00,838.99 470.00,838.99
             470.00,838.99 463.00,838.99 463.00,838.99
             463.00,838.99 434.00,841.00 434.00,841.00
             387.01,841.07 354.86,838.68 309.00,826.56
             264.79,814.89 223.13,794.44 185.00,769.50
             185.00,769.50 152.01,745.00 152.01,745.00
             148.28,741.73 137.85,731.14 134.00,730.00
             132.98,727.21 130.21,725.97 128.09,723.90
             128.09,723.90 122.83,718.17 122.83,718.17
             119.04,714.38 117.54,713.87 113.46,709.00
             113.46,709.00 91.87,683.83 91.87,683.83
             81.12,670.84 71.41,656.28 62.44,642.00
             38.60,604.04 21.51,561.61 11.50,518.00
             11.50,518.00 3.06,475.00 3.06,475.00
             3.06,475.00 3.06,467.00 3.06,467.00
             3.06,467.00 1.17,459.04 1.17,459.04
             1.17,459.04 1.17,448.00 1.17,448.00
             1.17,448.00 0.00,428.00 0.00,428.00
             -0.04,401.68 1.11,375.20 6.01,349.28
             10.53,325.41 14.63,308.10 22.51,285.01
             24.53,279.09 27.37,265.54 32.00,262.00
             32.03,257.49 34.58,253.17 36.30,249.00
             36.30,249.00 50.41,220.00 50.41,220.00
             70.55,183.49 93.78,152.31 123.04,122.58
             131.47,114.01 140.41,106.02 149.72,98.45
             153.12,95.68 157.70,90.56 162.00,90.00
             164.91,84.39 171.85,80.83 177.00,77.33
             177.00,77.33 197.00,63.61 197.00,63.61
             202.28,60.41 209.50,57.04 214.00,53.00 Z
           M 433.00,31.00
           C 433.00,31.00 435.00,31.00 435.00,31.00
             435.09,41.25 436.16,49.00 447.00,52.87
             451.56,54.50 455.23,53.80 460.00,56.00
             454.83,56.42 445.45,57.43 441.47,60.81
             436.45,65.09 435.27,73.83 435.00,80.00
             435.00,80.00 433.00,80.00 433.00,80.00
             432.92,70.69 431.07,61.27 420.99,57.91
             416.07,56.28 412.42,57.50 407.00,55.00
             417.87,54.99 428.80,53.79 432.05,41.42
             432.89,38.20 432.97,34.32 433.00,31.00 Z
           M 626.00,96.00
           C 630.33,104.48 626.43,114.15 635.68,122.15
             642.59,128.12 655.68,126.08 661.00,130.00
             649.56,130.03 636.54,131.44 631.05,143.00
             627.10,151.33 629.27,155.38 626.00,161.00
             624.38,151.96 624.08,139.63 614.91,134.44
             608.78,130.97 596.83,130.94 592.00,129.00
             598.10,127.91 607.70,127.34 613.00,124.56
             624.14,118.71 624.56,106.92 626.00,96.00 Z
           M 693.00,100.00
           C 693.00,100.00 694.00,100.00 694.00,100.00
             694.00,100.00 693.00,101.00 693.00,101.00
             693.00,101.00 693.00,100.00 693.00,100.00 Z
           M 695.00,102.00
           C 695.00,102.00 696.00,102.00 696.00,102.00
             696.00,102.00 695.00,103.00 695.00,103.00
             695.00,103.00 695.00,102.00 695.00,102.00 Z
           M 146.00,358.00
           C 145.68,351.52 150.87,342.97 153.66,337.00
             161.50,320.17 173.54,299.87 184.63,285.00
             218.47,239.59 266.01,202.48 320.00,184.49
             337.98,178.49 358.99,173.03 378.00,173.00
             396.91,172.97 421.49,170.80 438.00,181.00
             438.00,181.00 438.00,183.00 438.00,183.00
             438.00,183.00 387.00,188.00 387.00,188.00
             370.25,188.19 353.18,191.62 337.00,195.88
             321.45,199.98 308.22,206.12 294.01,213.43
             274.02,223.73 251.25,239.46 235.28,255.29
             235.28,255.29 223.49,268.13 223.49,268.13
             223.49,268.13 216.88,275.00 216.88,275.00
             216.88,275.00 200.66,298.00 200.66,298.00
             191.91,311.50 184.35,324.83 178.79,340.00
             171.42,360.07 168.94,372.91 166.83,394.00
             166.38,398.54 165.90,400.10 166.01,405.00
             166.01,405.00 166.91,414.00 166.91,414.00
             167.55,423.31 166.33,434.01 172.00,442.00
             174.92,419.88 180.41,394.03 187.86,373.00
             189.76,367.63 194.93,353.22 199.00,350.00
             199.48,344.41 209.13,329.37 213.30,325.14
             215.10,323.31 215.80,323.06 218.00,322.00
             219.12,316.04 233.13,303.27 237.83,311.15
             240.84,316.20 236.82,328.71 235.74,334.42
             235.74,334.42 227.91,385.00 227.91,385.00
             227.91,385.00 227.37,392.00 227.37,392.00
             228.17,407.93 232.98,422.12 238.14,437.00
             246.95,462.41 250.44,469.34 262.39,493.17
             262.39,493.17 266.74,504.09 266.74,504.09
             266.74,504.09 275.12,523.00 275.12,523.00
             275.12,523.00 283.07,537.00 283.07,537.00
             290.20,549.80 307.67,575.81 319.00,584.00
             319.00,584.00 318.00,586.00 318.00,586.00
             318.00,586.00 329.17,595.70 329.17,595.70
             329.17,595.70 350.00,613.34 350.00,613.34
             350.00,613.34 374.00,630.54 374.00,630.54
             374.00,630.54 389.00,640.00 389.00,640.00
             380.74,638.06 364.16,628.66 356.00,624.39
             325.29,608.35 304.45,590.62 277.72,569.50
             270.94,564.14 271.28,569.99 266.24,570.59
             260.93,571.22 250.69,566.49 248.00,562.00
             239.23,561.04 227.77,545.89 217.00,543.00
             215.59,559.35 225.87,578.92 233.53,593.00
             247.86,619.34 271.63,645.36 295.28,663.66
             295.28,663.66 312.42,675.72 312.42,675.72
             312.42,675.72 323.17,683.04 323.17,683.04
             323.17,683.04 351.00,699.00 351.00,699.00
             338.97,695.76 325.13,688.96 314.00,683.26
             314.00,683.26 304.00,678.49 304.00,678.49
             288.33,669.86 273.14,659.48 259.16,648.34
             259.16,648.34 230.72,622.71 230.72,622.71
             224.63,617.58 218.22,612.37 211.54,608.04
             207.63,605.51 201.91,603.29 198.92,600.29
             198.92,600.29 185.00,582.00 185.00,582.00
             185.00,582.00 192.00,600.00 192.00,600.00
             183.83,606.97 186.55,613.83 189.14,623.00
             191.07,629.82 195.60,641.88 198.90,648.00
             198.90,648.00 211.00,670.00 211.00,670.00
             205.15,665.72 194.23,651.37 189.41,645.00
             186.33,640.93 183.58,639.34 183.00,634.00
             178.93,631.23 175.46,625.16 172.67,621.00
             166.48,611.78 158.81,597.25 154.29,587.00
             140.75,556.28 133.83,534.02 129.13,500.73
             128.16,493.87 127.01,486.93 127.00,480.00
             127.00,480.00 127.00,446.00 127.00,446.00
             127.02,432.91 131.15,406.06 134.24,393.00
             134.24,393.00 136.99,383.00 136.99,383.00
             136.99,383.00 141.71,367.00 141.71,367.00
             142.79,363.63 143.21,360.29 146.00,358.00 Z
           M 688.00,243.00
           C 689.72,247.29 689.68,254.21 690.13,258.97
             691.12,269.38 693.60,281.85 701.38,289.48
             712.72,300.63 739.39,298.97 747.00,302.00
             728.48,302.00 702.56,304.17 694.67,324.00
             690.08,335.55 690.56,352.00 688.00,358.00
             687.97,346.86 685.53,327.48 679.65,318.04
             676.81,313.47 672.62,312.21 670.00,308.00
             670.00,308.00 659.83,305.45 659.83,305.45
             659.83,305.45 651.42,303.83 651.42,303.83
             651.42,303.83 632.00,301.00 632.00,301.00
             644.68,300.42 665.00,298.84 674.83,290.32
             685.67,280.92 687.96,256.72 688.00,243.00 Z
           M 630.00,301.00
           C 630.00,301.00 631.00,301.00 631.00,301.00
             631.00,301.00 630.00,302.00 630.00,302.00
             630.00,302.00 630.00,301.00 630.00,301.00 Z
           M 276.00,327.00
           C 276.00,327.00 277.00,327.00 277.00,327.00
             277.00,327.00 276.00,328.00 276.00,328.00
             276.00,328.00 276.00,327.00 276.00,327.00 Z
           M 97.00,376.00
           C 93.17,380.02 91.49,386.76 89.66,392.00
             85.96,402.60 81.36,420.91 79.73,432.00
             79.73,432.00 77.17,447.00 77.17,447.00
             72.20,494.67 79.86,545.03 95.99,590.00
             100.43,602.38 107.87,620.63 114.20,632.00
             116.75,636.58 118.68,642.92 123.00,646.00
             123.61,650.57 126.45,654.09 128.80,658.00
             128.80,658.00 142.65,679.00 142.65,679.00
             169.66,718.99 200.38,740.49 241.00,764.80
             241.00,764.80 275.00,782.33 275.00,782.33
             279.17,784.24 284.40,787.82 289.00,787.00
             289.00,787.00 274.00,777.62 274.00,777.62
             256.19,764.38 242.29,750.39 226.48,735.10
             226.48,735.10 208.91,718.83 208.91,718.83
             208.91,718.83 191.84,701.72 191.84,701.72
             191.84,701.72 167.92,676.00 167.92,676.00
             165.41,672.99 159.70,667.59 159.00,664.00
             153.74,659.61 147.47,649.88 143.50,644.00
             134.25,630.32 125.55,616.08 118.83,601.00
             118.83,601.00 110.45,583.00 110.45,583.00
             101.77,561.51 96.03,538.79 92.27,516.00
             90.71,506.51 88.10,489.14 88.68,480.00
             88.68,480.00 88.00,469.00 88.00,469.00
             88.00,469.00 88.00,451.00 88.00,451.00
             88.00,451.00 89.00,431.00 89.00,431.00
             89.00,431.00 93.31,396.00 93.31,396.00
             93.31,396.00 97.00,376.00 97.00,376.00 Z
           M 416.00,463.00
           C 419.01,468.95 417.17,477.96 424.53,483.86
             429.62,487.94 439.12,487.06 444.00,489.00
             435.38,489.64 424.48,490.19 420.21,499.02
             420.21,499.02 416.00,514.00 416.00,514.00
             415.84,506.57 414.20,496.54 406.91,492.72
             401.64,489.96 395.25,490.59 390.00,488.00
             399.65,487.97 409.85,486.11 413.99,476.00
             415.13,473.23 415.86,466.15 416.00,463.00 Z
           M 687.00,480.00
           C 689.77,484.25 688.52,485.52 689.98,489.42
             692.46,496.06 698.41,498.63 705.00,499.00
             705.00,499.00 705.00,501.00 705.00,501.00
             698.81,501.52 693.71,502.95 690.77,509.01
             688.87,512.91 689.85,515.20 687.00,519.00
             686.72,506.59 682.19,501.84 670.00,501.00
             670.00,501.00 670.00,499.00 670.00,499.00
             683.17,498.67 686.89,492.24 687.00,480.00 Z
           M 668.00,500.00
           C 668.00,500.00 669.00,500.00 669.00,500.00
             669.00,500.00 668.00,501.00 668.00,501.00
             668.00,501.00 668.00,500.00 668.00,500.00 Z
           M 331.00,637.00
           C 337.88,636.02 344.55,639.45 351.00,641.44
             351.00,641.44 376.04,648.07 376.04,648.07
             376.04,648.07 385.58,651.13 385.58,651.13
             385.58,651.13 416.00,657.82 416.00,657.82
             416.00,657.82 424.00,659.81 424.00,659.81
             424.00,659.81 451.00,663.75 451.00,663.75
             451.00,663.75 486.00,673.96 486.00,673.96
             503.52,679.20 525.83,683.24 544.00,684.93
             544.00,684.93 574.00,687.17 574.00,687.17
             574.00,687.17 595.00,689.00 595.00,689.00
             598.85,689.04 611.09,689.34 612.83,693.19
             615.04,698.06 601.14,702.95 597.72,704.24
             579.99,710.95 558.62,715.13 539.83,717.93
             539.83,717.93 527.00,719.17 527.00,719.17
             527.00,719.17 516.00,720.83 516.00,720.83
             516.00,720.83 498.96,721.40 498.96,721.40
             498.96,721.40 489.00,722.00 489.00,722.00
             489.00,722.00 464.00,720.92 464.00,720.92
             464.00,720.92 453.00,720.92 453.00,720.92
             429.11,717.78 389.97,705.34 368.00,695.21
             368.00,695.21 352.00,686.68 352.00,686.68
             340.81,680.76 321.95,669.58 312.72,661.42
             309.46,658.54 302.32,652.99 302.59,648.11
             302.82,643.89 308.02,644.10 311.00,644.30
             311.00,644.30 337.00,647.00 337.00,647.00
             337.00,647.00 331.00,637.00 331.00,637.00 Z
           M 186.00,638.00
           C 186.00,638.00 185.00,638.00 185.00,638.00
             185.00,638.00 186.00,639.00 186.00,639.00
             186.00,639.00 186.00,638.00 186.00,638.00 Z
           M 291.00,788.00
           C 291.00,788.00 290.00,788.00 290.00,788.00
             290.00,788.00 291.00,789.00 291.00,789.00
             291.00,789.00 291.00,788.00 291.00,788.00 Z" />
</svg>
