<?xml version="1.0" encoding="UTF-8" standalone="no"?>
<!DOCTYPE svg PUBLIC "-//W3C//DTD SVG 20010904//EN"
              "http://www.w3.org/TR/2001/REC-SVG-20010904/DTD/svg10.dtd">

<svg xmlns="http://www.w3.org/2000/svg"
     width="4.15278in" height="2.45833in"
     viewBox="0 0 299 177">
  <path id="Selection"
        fill="#d93f87"
        d="M 23.00,1.65
           C 26.18,1.00 29.90,0.55 33.00,1.65
             36.50,3.07 40.33,7.33 43.00,10.00
             43.00,10.00 59.00,26.00 59.00,26.00
             59.00,26.00 76.00,42.00 76.00,42.00
             76.00,42.00 127.00,92.17 127.00,92.17
             127.00,92.17 143.00,108.00 143.00,108.00
             144.59,109.58 147.76,113.08 150.00,113.38
             152.85,113.76 156.15,109.83 158.00,108.00
             158.00,108.00 178.00,88.00 178.00,88.00
             178.00,88.00 245.00,21.00 245.00,21.00
             245.00,21.00 256.00,10.83 256.00,10.83
             262.12,5.33 265.88,0.77 275.00,2.33
             285.46,4.11 297.37,16.41 298.64,27.00
             299.42,33.53 295.21,37.73 291.00,42.00
             291.00,42.00 269.00,64.00 269.00,64.00
             269.00,64.00 187.00,146.00 187.00,146.00
             187.00,146.00 166.00,167.00 166.00,167.00
             162.34,170.65 158.29,175.39 153.00,176.43
             145.70,177.87 140.68,172.65 136.00,168.00
             136.00,168.00 110.00,142.00 110.00,142.00
             110.00,142.00 27.00,59.00 27.00,59.00
             27.00,59.00 15.00,47.00 15.00,47.00
             8.58,40.58 0.25,34.07 1.11,24.00
             1.97,13.90 14.07,4.60 23.00,1.65 Z" />
</svg>
