<?xml version="1.0" encoding="UTF-8" standalone="no"?>
<!DOCTYPE svg PUBLIC "-//W3C//DTD SVG 20010904//EN"
              "http://www.w3.org/TR/2001/REC-SVG-20010904/DTD/svg10.dtd">

<svg xmlns="http://www.w3.org/2000/svg"
     width="1.28in" height="1.27333in"
     viewBox="0 0 384 382">
  <path id="Selection"
        fill="white"
        d="M 40.00,0.44
           C 55.01,-1.48 70.58,3.65 80.82,15.01
             96.60,32.53 96.29,60.95 79.91,77.96
             75.63,82.40 70.65,85.70 65.00,88.13
             58.46,90.94 52.10,92.15 45.00,91.99
             11.22,91.22 -9.61,54.79 5.38,25.00
             12.45,10.93 24.92,3.26 40.00,0.44 Z
           M 212.00,162.00
           C 223.50,148.00 226.82,140.62 244.00,131.31
             263.45,120.77 277.73,120.75 299.00,121.00
             325.90,121.32 354.28,133.73 367.69,158.00
             377.40,175.58 380.20,192.36 382.17,212.00
             382.17,212.00 383.00,221.00 383.00,221.00
             383.00,221.00 384.00,240.00 384.00,240.00
             384.00,240.00 384.00,296.00 384.00,296.00
             384.00,296.00 384.00,361.00 384.00,361.00
             384.00,364.68 384.95,378.96 382.40,380.98
             380.81,382.23 376.99,382.00 375.00,382.00
             375.00,382.00 321.00,382.00 321.00,382.00
             305.12,382.00 304.06,383.30 304.00,374.00
             304.00,374.00 304.00,243.00 304.00,243.00
             303.81,227.34 300.01,207.59 287.00,197.53
             280.87,192.79 275.44,191.70 268.00,190.85
             246.02,188.32 226.87,198.28 219.75,220.00
             213.75,238.30 215.00,263.68 215.00,283.00
             215.00,283.00 215.00,382.00 215.00,382.00
             215.00,382.00 136.00,382.00 136.00,382.00
             136.00,382.00 136.00,127.00 136.00,127.00
             136.00,127.00 212.00,127.00 212.00,127.00
             212.00,127.00 212.00,162.00 212.00,162.00 Z
           M 7.00,127.00
           C 7.00,127.00 86.00,127.00 86.00,127.00
             86.00,127.00 86.00,382.00 86.00,382.00
             86.00,382.00 7.00,382.00 7.00,382.00
             7.00,382.00 7.00,127.00 7.00,127.00 Z" />
</svg>
