<?xml version="1.0" encoding="UTF-8" standalone="no"?>
<!DOCTYPE svg PUBLIC "-//W3C//DTD SVG 20010904//EN"
              "http://www.w3.org/TR/2001/REC-SVG-20010904/DTD/svg10.dtd">

<svg xmlns="http://www.w3.org/2000/svg"
     width="0.513333in" height="0.336667in"
     viewBox="0 0 154 101">
  <path id="Selection"
        fill="white"
        d="M 4.00,1.00
           C 4.00,1.00 151.00,1.00 151.00,1.00
             146.79,6.87 139.29,13.71 134.00,19.00
             134.00,19.00 107.17,47.00 107.17,47.00
             99.40,55.58 91.38,65.96 79.00,67.16
             68.93,68.13 62.05,61.80 55.01,55.58
             55.01,55.58 45.96,46.00 45.96,46.00
             45.96,46.00 23.91,23.00 23.91,23.00
             17.32,15.92 8.86,9.33 4.00,1.00 Z
           M 0.00,5.00
           C 0.00,5.00 21.00,26.00 21.00,26.00
             21.00,26.00 46.00,52.00 46.00,52.00
             46.00,52.00 18.00,80.00 18.00,80.00
             18.00,80.00 0.00,97.00 0.00,97.00
             0.00,97.00 0.00,5.00 0.00,5.00 Z
           M 153.00,5.00
           C 153.00,5.00 154.00,33.00 154.00,33.00
             154.00,33.00 154.00,96.00 154.00,96.00
             154.00,96.00 127.00,71.00 127.00,71.00
             127.00,71.00 108.00,51.00 108.00,51.00
             108.00,51.00 153.00,5.00 153.00,5.00 Z
           M 48.00,55.00
           C 48.00,55.00 62.00,67.49 62.00,67.49
             64.22,69.14 66.43,70.49 69.00,71.52
             85.53,78.15 94.97,64.09 106.00,55.00
             106.00,55.00 134.00,83.00 134.00,83.00
             134.00,83.00 151.00,101.00 151.00,101.00
             151.00,101.00 4.00,101.00 4.00,101.00
             6.90,94.87 14.12,88.88 19.00,84.00
             19.00,84.00 48.00,55.00 48.00,55.00 Z" />
</svg>
