<?xml version="1.0" encoding="UTF-8" standalone="no"?>
<!DOCTYPE svg PUBLIC "-//W3C//DTD SVG 20010904//EN"
              "http://www.w3.org/TR/2001/REC-SVG-20010904/DTD/svg10.dtd">

<svg xmlns="http://www.w3.org/2000/svg"
     width="4.13889in" height="2.44444in"
     viewBox="0 0 298 176">
  <path id="Selection #1"
        fill="#d93f87"
        d="M 144.00,1.65
           C 155.06,-0.63 158.74,4.74 166.00,12.00
             166.00,12.00 184.00,30.00 184.00,30.00
             184.00,30.00 268.00,114.00 268.00,114.00
             268.00,114.00 287.00,133.00 287.00,133.00
             291.91,137.94 296.90,142.67 297.66,150.00
             299.18,164.65 276.20,182.04 263.00,173.30
             263.00,173.30 239.00,150.09 239.00,150.09
             239.00,150.09 178.00,91.00 178.00,91.00
             178.00,91.00 157.00,70.02 157.00,70.02
             154.87,67.94 151.02,63.66 147.72,64.36
             144.93,64.94 141.01,69.02 139.00,71.00
             139.00,71.00 123.00,87.00 123.00,87.00
             123.00,87.00 60.00,150.00 60.00,150.00
             51.97,158.03 36.37,176.98 24.00,174.48
             10.68,171.79 -4.97,154.40 3.01,141.00
             5.04,137.58 10.97,132.03 14.00,129.00
             14.00,129.00 35.00,108.00 35.00,108.00
             35.00,108.00 103.00,40.00 103.00,40.00
             103.00,40.00 128.00,15.00 128.00,15.00
             132.90,10.10 137.50,4.38 144.00,1.65 Z" />
</svg>
